<?xml version="1.0" encoding="UTF-8"?>
<svg width="208px" height="105px" viewBox="0 0 208 105" version="1.1" xmlns="http://www.w3.org/2000/svg" xmlns:xlink="http://www.w3.org/1999/xlink">
    <!-- Generator: Sketch 49 (51002) - http://www.bohemiancoding.com/sketch -->
    <title>DFAT-03-LogoDirection-01-v01r01.svg</title>
    <desc>Created with Sketch.</desc>
    <defs></defs>
    <g id="DFAT-04-SFI-Website-Wireframes" stroke="none" stroke-width="1" fill="none" fill-rule="evenodd">
        <g id="Desktop/Home27th/976-Logo-1" transform="translate(-14.000000, -15.000000)" fill="#231F20" fill-rule="nonzero">
            <g id="DFAT-03-LogoDirection-01-v01r01.svg" transform="translate(13.000000, 16.000000)">
                <path d="M106.842241,46.5131034 C108.025864,47.8575542 109.730682,48.6341033 111.526724,48.6468966 C113.941034,48.6468966 115.4725,47.3558621 115.4725,45.4731034 C115.4725,43.5903448 114.175259,42.8551724 112.607759,42.1558621 L110.193448,41.08 C108.382788,40.5889651 107.090966,38.9999709 106.986379,37.1351724 C107.053887,36.0004846 107.584994,34.9427065 108.456242,34.2077211 C109.32749,33.4727358 110.46299,33.1245636 111.598793,33.2441379 C113.276622,33.2410348 114.880951,33.9290236 116.031034,35.1448276 L115.310345,35.862069 C114.340281,34.8065908 112.963906,34.2130152 111.526724,34.2303448 C109.418707,34.2303448 108.031379,35.3241379 108.031379,37.0634483 C108.031379,38.8027586 109.616897,39.5737931 110.77,40.1117241 L113.18431,41.1696552 C114.986034,41.9586207 116.5175,42.9627586 116.5175,45.3655172 C116.5175,47.7682759 114.517586,49.6151724 111.418621,49.6151724 C109.356034,49.6496563 107.381392,48.7849711 106.013448,47.2482759 L106.842241,46.5131034 Z" id="Shape"></path>
                <path d="M124.048707,37.5475862 C125.329102,37.5443922 126.55672,38.0550681 127.453966,38.9641379 L126.823362,39.7172414 C126.11277,38.957911 125.126862,38.5125019 124.084741,38.48 C121.706466,38.48 119.868707,40.577931 119.868707,43.6262069 C119.868707,46.6744828 121.54431,48.7186207 124.084741,48.7186207 C125.243538,48.6807015 126.344678,48.2064647 127.16569,47.3917241 L127.724224,48.1268966 C126.750903,49.0565993 125.468843,49.598868 124.120776,49.6510345 C121.129914,49.6510345 118.859741,47.4455172 118.859741,43.6262069 C118.859741,39.8068966 121.238017,37.5475862 124.048707,37.5475862 Z" id="Shape"></path>
                <path d="M137.165259,42.137931 C137.165259,40.3448276 136.69681,38.5517241 134.426638,38.5517241 C133.115489,38.6223579 131.857709,39.0917685 130.82319,39.8965517 L130.354741,39.1075862 C131.602119,38.1953572 133.095981,37.6768814 134.642845,37.6193103 C137.399483,37.6193103 138.246293,39.5917241 138.246293,42.0662069 L138.246293,49.4358621 L137.345431,49.4358621 L137.237328,47.9475862 C136.111553,48.990999 134.663226,49.6231905 133.129397,49.7406897 C132.222423,49.8511059 131.313568,49.5503288 130.653644,48.9213625 C129.993721,48.2923961 129.652497,47.4017355 129.724138,46.4951724 C129.724138,43.9310345 132.012328,42.7117241 137.165259,42.137931 Z M133.219483,48.7365517 C134.711299,48.6410861 136.115719,48.0028669 137.165259,46.9434483 L137.165259,43.0344828 C132.408707,43.5724138 130.787155,44.6841379 130.787155,46.5131034 C130.760881,47.1459459 131.016103,47.7581645 131.484816,48.1866258 C131.953529,48.6150871 132.588115,48.8162645 133.219483,48.7365517 Z" id="Shape"></path>
                <path d="M142.336207,32.0965517 L143.399224,32.0965517 L143.399224,47.9834483 C143.399224,48.4855172 143.615431,48.7186207 143.921724,48.7186207 C144.065339,48.7358969 144.210523,48.7358969 144.354138,48.7186207 L144.53431,49.5972414 C144.290072,49.6757547 144.034145,49.7121407 143.777586,49.7048276 C142.822672,49.7048276 142.336207,49.1310345 142.336207,47.9117241 L142.336207,32.0965517 Z" id="Shape"></path>
                <path d="M147.741379,34.0689655 C147.726686,33.6743994 147.95419,33.3104752 148.316339,33.1492403 C148.678487,32.9880055 149.102732,33.0617596 149.388508,33.335635 C149.674285,33.6095104 149.764344,34.0286425 149.616111,34.394884 C149.467877,34.7611255 149.111046,35.0011084 148.71431,35.0013793 C148.459647,35.0111345 148.21198,34.9172219 148.028405,34.7412919 C147.84483,34.565362 147.741191,34.3225978 147.741379,34.0689655 Z M148.155776,37.7806897 L149.218793,37.7806897 L149.218793,49.3103448 L148.101724,49.3103448 L148.155776,37.7806897 Z" id="Shape"></path>
                <path d="M153.633017,37.8344828 L154.551897,37.8344828 L154.551897,39.6275862 C155.542124,38.4298789 156.979875,37.6853076 158.533707,37.5655172 C160.93,37.5655172 162.029052,39.017931 162.029052,41.9944828 L162.029052,49.382069 L160.984052,49.382069 L160.984052,42.2096552 C160.984052,39.7531034 160.20931,38.6234483 158.3175,38.6234483 C156.94819,38.6234483 155.957241,39.3406897 154.533879,40.7751724 L154.533879,49.4717241 L153.470862,49.4717241 L153.633017,37.8344828 Z" id="Shape"></path>
                <path d="M167.218017,48.9337931 L167.218017,48.8441379 C166.585059,48.4676911 166.200819,47.7848302 166.209052,47.0510345 C166.24935,46.1291443 166.758638,45.2911508 167.560345,44.8275862 C166.64805,44.0278303 166.11796,42.8815423 166.100948,41.6717241 C166.07606,40.5847976 166.498964,39.5350358 167.271433,38.7662631 C168.043901,37.9974905 169.09871,37.5766104 170.190862,37.6013793 C170.709011,37.6011639 171.222523,37.6985078 171.70431,37.8882759 L175.650086,37.8882759 L175.650086,38.7848276 L172.9475,38.7848276 C173.770973,39.5270029 174.236474,40.5840491 174.226724,41.6896552 C174.256444,42.7669646 173.841991,43.809471 173.079678,44.5749103 C172.317365,45.3403495 171.273572,45.7620697 170.190862,45.742069 C169.519453,45.7472273 168.857182,45.5870715 168.263017,45.2758621 C167.686402,45.6311211 167.327653,46.2508753 167.308103,46.9255172 C167.308103,47.7682759 167.794569,48.4317241 169.542241,48.4317241 L172.028621,48.4317241 C174.623103,48.4317241 175.830259,49.2565517 175.830259,51.0855172 C175.830259,52.9144828 173.686207,54.9765517 170.425086,54.9765517 C167.506293,54.9765517 165.668534,53.7213793 165.668534,51.7848276 C165.699399,50.6431501 166.274825,49.5843716 167.218017,48.9337931 Z M170.389052,54.062069 C173.001552,54.062069 174.659138,52.5917241 174.659138,51.1393103 C174.659138,49.6868966 173.722241,49.3462069 171.974569,49.3462069 L169.48819,49.3462069 C169.002274,49.3290177 168.519354,49.2629339 168.04681,49.1489655 C167.163963,49.6497495 166.594747,50.5601845 166.533362,51.5696552 C166.533362,53.0758621 167.92069,54.062069 170.389052,54.062069 Z M173.091638,41.617931 C173.091638,39.9641239 171.744517,38.6234483 170.082759,38.6234483 C168.421,38.6234483 167.073879,39.9641239 167.073879,41.617931 C167.073879,43.2717382 168.421,44.6124138 170.082759,44.6124138 C171.744517,44.6124138 173.091638,43.2717382 173.091638,41.617931 Z" id="Shape"></path>
                <polygon id="Shape" points="107.364741 55.5862069 116.031034 55.5862069 116.031034 56.5365517 108.48181 56.5365517 108.48181 62.7586207 114.859914 62.7586207 114.859914 63.7268966 108.48181 63.7268966 108.48181 71.3475862 107.364741 71.3475862"></polygon>
                <path d="M118.157069,59.8717241 L119.075948,59.8717241 L119.184052,62.0055172 C119.755591,60.6439326 121.039972,59.7111656 122.517241,59.5848276 C122.915455,59.5611652 123.312966,59.6415233 123.670345,59.817931 L123.436121,60.7862069 C123.099634,60.646886 122.737429,60.5796794 122.373103,60.5889655 C121.328103,60.5889655 120.102931,61.377931 119.202069,63.5475862 L119.202069,71.4013793 L118.139052,71.4013793 L118.157069,59.8717241 Z" id="Shape"></path>
                <path d="M129.724138,59.5848276 C132.534828,59.5848276 134.949138,61.7903448 134.949138,65.6634483 C134.949138,69.5365517 132.606897,71.7241379 129.724138,71.7241379 C126.841379,71.7241379 124.535172,69.5186207 124.535172,65.6993103 C124.535172,61.88 127.021552,59.5848276 129.724138,59.5848276 Z M129.724138,70.7558621 C132.066379,70.7558621 133.832069,68.6758621 133.832069,65.6634483 C133.832069,62.6510345 132.030345,60.5172414 129.724138,60.5172414 C127.417931,60.5172414 125.652241,62.5972414 125.652241,65.6634483 C125.652241,68.7296552 127.453966,70.7558621 129.724138,70.7558621 Z" id="Shape"></path>
                <path d="M138.498534,59.8717241 L139.417414,59.8717241 L139.5075,61.6648276 C140.492277,60.4604445 141.933113,59.7142751 143.48931,59.6027586 C145.885603,59.6027586 146.984655,61.0372414 146.984655,64.0137931 L146.984655,71.4193103 L145.939655,71.4193103 L145.939655,64.2468966 C145.939655,61.8082759 145.182931,60.6606897 143.291121,60.6606897 C141.92181,60.6606897 140.930862,61.377931 139.5075,62.8303448 L139.5075,71.5268966 L138.444483,71.5268966 L138.498534,59.8717241 Z" id="Shape"></path>
                <path d="M151.597069,60.7862069 L149.795345,60.7862069 L149.795345,59.9613793 L151.597069,59.9613793 L151.741207,56.6082759 L152.660086,56.6082759 L152.660086,59.9613793 L156.011293,59.9613793 L156.011293,60.8758621 L152.696121,60.8758621 L152.696121,68.3889655 C152.696121,69.8593103 153.056466,70.8455172 154.641983,70.8455172 C155.148461,70.8158735 155.644227,70.6879563 156.101379,70.4689655 L156.389655,71.3475862 C155.811651,71.5722655 155.205438,71.7170606 154.587931,71.777931 C152.335776,71.777931 151.687155,70.3613793 151.687155,68.2993103 L151.597069,60.7862069 Z" id="Shape"></path>
                <path d="M158.551724,56.142069 C158.50022,55.7680276 158.671863,55.398303 158.991445,55.1948915 C159.311028,54.9914799 159.720265,54.9914799 160.039848,55.1948915 C160.35943,55.398303 160.531073,55.7680276 160.479569,56.142069 C160.413547,56.6215511 160.001937,56.9788845 159.515647,56.9788845 C159.029356,56.9788845 158.617746,56.6215511 158.551724,56.142069 Z M158.966121,59.8717241 L160.029138,59.8717241 L160.029138,71.4013793 L158.966121,71.4013793 L158.966121,59.8717241 Z" id="Shape"></path>
                <path d="M168.479224,59.5848276 C171.235862,59.5848276 172.929483,61.5213793 172.929483,64.9641379 C172.956357,65.2504111 172.956357,65.5385544 172.929483,65.8248276 L164.515431,65.8248276 C164.515431,68.7296552 166.317155,70.8275862 168.893621,70.8275862 C170.018414,70.8262946 171.112331,70.4613027 172.010603,69.7875862 L172.443017,70.6124138 C171.381594,71.3374646 170.126914,71.7307979 168.839569,71.742069 C167.286231,71.753245 165.803146,71.0987839 164.768572,69.9456047 C163.733998,68.7924256 163.247951,67.2520111 163.434397,65.7172414 C163.434397,61.88 165.902759,59.5848276 168.479224,59.5848276 Z M171.9025,64.9641379 C171.9025,62.0055172 170.587241,60.4993103 168.497241,60.4993103 C166.193108,60.7068127 164.448892,62.6626123 164.515431,64.9641379 L171.9025,64.9641379 Z" id="Shape"></path>
                <path d="M176.064483,59.8717241 L176.983362,59.8717241 L176.983362,62.0055172 C177.545945,60.6598839 178.805329,59.7301948 180.2625,59.5848276 C180.666385,59.5629161 181.069272,59.6431078 181.433621,59.817931 L181.181379,60.7862069 C180.845871,60.6436444 180.48295,60.5763049 180.118362,60.5889655 C179.091379,60.5889655 177.84819,61.377931 176.965345,63.5475862 L176.965345,71.4013793 L175.902328,71.4013793 L176.064483,59.8717241 Z" id="Shape"></path>
                <polygon id="Shape" points="107.364741 76.5834483 108.48181 76.5834483 108.48181 92.4165517 107.364741 92.4165517"></polygon>
                <path d="M112.950086,80.8868966 L113.868966,80.8868966 L113.868966,82.68 C114.910161,81.469435 116.412844,80.747697 118.012931,80.6896552 C120.409224,80.6896552 121.508276,82.142069 121.508276,85.1186207 L121.508276,92.5062069 L120.463276,92.5062069 L120.463276,85.3337931 C120.463276,82.8772414 119.688534,81.7475862 117.796724,81.7475862 C116.427414,81.7475862 115.436466,82.4648276 114.013103,83.8993103 L114.013103,92.5958621 L112.950086,92.5958621 L112.950086,80.8868966 Z" id="Shape"></path>
                <path d="M125.796379,80.8868966 L126.715259,80.8868966 L126.715259,82.68 C127.756454,81.469435 129.259137,80.747697 130.859224,80.6896552 C133.255517,80.6896552 134.354569,82.142069 134.354569,85.1186207 L134.354569,92.5062069 L133.327586,92.5062069 L133.327586,85.3337931 C133.327586,82.8772414 132.552845,81.7475862 130.661034,81.7475862 C129.291724,81.7475862 128.300776,82.4648276 126.877414,83.8993103 L126.877414,92.5958621 L125.814397,92.5958621 L125.796379,80.8868966 Z" id="Shape"></path>
                <path d="M142.858707,80.6896552 C145.669397,80.6896552 148.083707,82.8951724 148.083707,86.7682759 C148.083707,90.6413793 145.669397,92.7931034 142.858707,92.7931034 C140.048017,92.7931034 137.669741,90.5875862 137.669741,86.7682759 C137.669741,82.9489655 140.084052,80.6896552 142.858707,80.6896552 Z M142.858707,91.8606897 C145.200948,91.8606897 146.966638,89.7986207 146.966638,86.7682759 C146.966638,83.737931 145.164914,81.622069 142.858707,81.622069 C140.5525,81.622069 138.732759,83.6303448 138.732759,86.6786207 C138.732759,89.7268966 140.534483,91.7710345 142.858707,91.7710345 L142.858707,91.8606897 Z" id="Shape"></path>
                <path d="M149.543103,80.8868966 L150.714224,80.8868966 L153.308707,88.0593103 C153.687069,89.1531034 154.119483,90.3186207 154.479828,91.3586207 C154.876207,90.3186207 155.272586,89.1531034 155.668966,88.0593103 L158.263448,80.8868966 L159.3625,80.8868966 L155.056379,92.4165517 L153.81319,92.4165517 L149.543103,80.8868966 Z" id="Shape"></path>
                <path d="M168.389138,85.1903448 C168.389138,83.3972414 167.92069,81.6041379 165.650517,81.6041379 C164.339368,81.6747717 163.081588,82.1441823 162.047069,82.9489655 L161.560603,82.16 C162.786325,81.2737038 164.245313,80.7626968 165.758621,80.6896552 C168.515259,80.6896552 169.362069,82.662069 169.362069,85.1365517 L169.362069,92.5062069 L168.479224,92.5062069 L168.353103,91.017931 C167.224966,92.0577616 165.777955,92.6893789 164.245172,92.8110345 C163.357713,92.9119974 162.470467,92.6200545 161.818383,92.0125138 C161.166299,91.4049731 160.815153,90.543118 160.857931,89.6551724 C160.893966,87.0013793 163.236207,85.7641379 168.389138,85.1903448 Z M164.443362,91.8068966 C165.946675,91.6841702 167.351643,91.0137782 168.389138,89.9241379 L168.389138,86.0689655 C163.632586,86.6068966 162.011034,87.7186207 162.011034,89.5475862 C161.980159,90.1846875 162.232537,90.8030346 162.701077,91.2382457 C163.169616,91.6734569 163.806845,91.881437 164.443362,91.8068966 Z" id="Shape"></path>
                <path d="M173.866379,81.8013793 L172.064655,81.8013793 L172.064655,80.9944828 L173.866379,80.8868966 L174.010517,77.5517241 L174.929397,77.5517241 L174.929397,80.8868966 L178.37069,80.8868966 L178.37069,81.8013793 L174.947414,81.8013793 L174.947414,89.3324138 C174.947414,90.7848276 175.307759,91.7710345 176.911293,91.7710345 C177.414487,91.7611181 177.910636,91.6513903 178.37069,91.4482759 L178.658966,92.3089655 C178.084405,92.5443986 177.476584,92.6895777 176.857241,92.7393103 C174.605086,92.7393103 173.956466,91.3227586 173.956466,89.2606897 L173.866379,81.8013793 Z" id="Shape"></path>
                <path d="M180.712931,77.1034483 C180.712931,76.5686843 181.148527,76.1351724 181.685862,76.1351724 C182.223197,76.1351724 182.658793,76.5686843 182.658793,77.1034483 C182.658793,77.6382123 182.223197,78.0717241 181.685862,78.0717241 C181.148527,78.0717241 180.712931,77.6382123 180.712931,77.1034483 Z M181.127328,80.8151724 L182.190345,80.8151724 L182.190345,92.3448276 L181.127328,92.3448276 L181.127328,80.8151724 Z" id="Shape"></path>
                <path d="M190.982759,80.6896552 C193.775431,80.6896552 196.189741,82.8951724 196.189741,86.7682759 C196.189741,90.6413793 193.685345,92.7034483 190.982759,92.7034483 C188.280172,92.7034483 185.793793,90.497931 185.793793,86.6786207 C185.793793,82.8593103 188.118017,80.6896552 190.982759,80.6896552 Z M190.982759,91.8606897 C193.325,91.8606897 195.072672,89.7986207 195.072672,86.7682759 C195.072672,83.737931 193.270948,81.622069 190.982759,81.622069 C188.694569,81.622069 186.892845,83.72 186.892845,86.7682759 C186.892845,89.8165517 188.550431,91.7710345 190.982759,91.7710345 L190.982759,91.8606897 Z" id="Shape"></path>
                <path d="M199.576983,80.8868966 L200.495862,80.8868966 L200.495862,82.68 C201.537057,81.469435 203.039741,80.747697 204.639828,80.6896552 C207.036121,80.6896552 208.243276,82.142069 208.243276,85.1186207 L208.243276,92.5062069 L207.180259,92.5062069 L207.180259,85.3337931 C207.180259,82.8772414 206.405517,81.7475862 204.513707,81.7475862 C203.144397,81.7475862 202.153448,82.4648276 200.730086,83.8993103 L200.730086,92.5958621 L199.667069,92.5958621 L199.576983,80.8868966 Z" id="Shape"></path>
                <rect id="Rectangle-path" transform="translate(59.104465, 19.884681) rotate(-86.530000) translate(-59.104465, -19.884681) " x="39.1413611" y="18.9881292" width="39.9262069" height="1.79310345"></rect>
                <rect id="Rectangle-path" transform="translate(43.401661, 22.031827) rotate(-19.080000) translate(-43.401661, -22.031827) " x="42.5007991" y="2.16424106" width="1.80172414" height="39.7351724"></rect>
                <rect id="Rectangle-path" transform="translate(20.130550, 42.554487) rotate(-64.090000) translate(-20.130550, -42.554487) " x="19.2296884" y="22.7048317" width="1.80172414" height="39.6993103"></rect>
                <rect id="Rectangle-path" transform="translate(29.723386, 30.001652) rotate(-41.570000) translate(-29.723386, -30.001652) " x="28.8225243" y="10.1340653" width="1.80172414" height="39.7351724"></rect>
                <rect id="Rectangle-path" transform="translate(22.167595, 58.188742) rotate(-86.570000) translate(-22.167595, -58.188742) " x="21.2667333" y="44.3549485" width="1.80172414" height="27.6675862"></rect>
                <rect id="Rectangle-path" transform="translate(41.566188, 91.172364) rotate(-64.040000) translate(-41.566188, -91.172364) " x="27.6748949" y="90.2758123" width="27.7825862" height="1.79310345"></rect>
                <rect id="Rectangle-path" transform="translate(24.014989, 71.467559) rotate(-19.040000) translate(-24.014989, -71.467559) " x="10.1236963" y="70.5710077" width="27.7825862" height="1.79310345"></rect>
                <rect id="Rectangle-path" transform="translate(30.832887, 83.079779) rotate(-41.600000) translate(-30.832887, -83.079779) " x="16.9325849" y="82.1832276" width="27.8006034" height="1.79310345"></rect>
                <rect id="Rectangle-path" transform="translate(54.902539, 89.760904) rotate(-86.530000) translate(-54.902539, -89.760904) " x="45.848875" y="88.8643523" width="18.1073276" height="1.79310345"></rect>
                <rect id="Rectangle-path" transform="translate(66.387579, 88.198865) rotate(-19.110000) translate(-66.387579, -88.198865) " x="65.4867168" y="79.1885201" width="1.80172414" height="18.0206897"></rect>
                <rect id="Rectangle-path" transform="translate(83.392280, 73.159591) rotate(-64.100000) translate(-83.392280, -73.159591) " x="82.4914178" y="64.1582117" width="1.80172414" height="18.0027586"></rect>
                <rect id="Rectangle-path" transform="translate(76.420067, 82.368347) rotate(-41.610000) translate(-76.420067, -82.368347) " x="75.5192048" y="73.3580017" width="1.80172414" height="18.0206897"></rect>
                <rect id="Rectangle-path" transform="translate(82.487297, 61.793262) rotate(-86.570000) translate(-82.487297, -61.793262) " x="81.5864348" y="56.6380895" width="1.80172414" height="10.3103448"></rect>
                <rect id="Rectangle-path" transform="translate(67.982434, 37.104435) rotate(-64.040000) translate(-67.982434, -37.104435) " x="62.8024768" y="36.2078835" width="10.3599138" height="1.79310345"></rect>
                <rect id="Rectangle-path" transform="translate(81.110454, 51.837601) rotate(-19.040000) translate(-81.110454, -51.837601) " x="75.9304968" y="50.9410495" width="10.3599138" height="1.79310345"></rect>
                <rect id="Rectangle-path" transform="translate(76.006467, 43.183628) rotate(-41.600000) translate(-76.006467, -43.183628) " x="70.8265102" y="42.2870759" width="10.3599138" height="1.79310345"></rect>
            </g>
        </g>
    </g>
</svg>