<?xml version="1.0" encoding="UTF-8"?>
<svg width="66px" height="77px" viewBox="0 0 66 77" version="1.1" xmlns="http://www.w3.org/2000/svg" xmlns:xlink="http://www.w3.org/1999/xlink">
    <!-- Generator: Sketch 49.1 (51147) - http://www.bohemiancoding.com/sketch -->
    <title>DFAT-04-WebsiteProofPointIcons-1-v01r01</title>
    <desc>Created with Sketch.</desc>
    <defs></defs>
    <g id="Symbols" stroke="none" stroke-width="1" fill="none" fill-rule="evenodd">
        <g id="976/ProofPoints" transform="translate(1.000000, 0.000000)">
            <g id="DFAT-04-WebsiteProofPointIcons-1-v01r01">
                <path d="M29.0099114,52.8351127 C27.2655405,52.867874 25.5230508,52.7047077 23.8159848,52.3487544 L18.153704,50.8956109 C17.5843957,50.7532391 17.0231757,50.58099 16.472433,50.3795967 L15.2174842,49.8695136 C15.0299701,49.7832573 14.8608246,49.6624769 14.7191075,49.5136418 C14.1606853,48.86121 13.1459181,46.9039146 15.3916159,45.5931198 C15.9621167,45.2146317 16.6318943,45.0085267 17.3190731,45 C17.3190731,45 18.1476995,45 18.4479265,45.0711744 L32.5285715,47.1826809 C38.9414197,48.1672598 42.1118165,55.059312 42.1118165,55.059312 L45,60" id="Shape" stroke="#231F20" fill="#FFFFFF" fill-rule="nonzero"></path>
                <path d="M46.8501095,70.8030552 C48.8757628,69.6395601 51.6865064,67.8197345 52.4236524,66.51304 C53.6222638,64.365049 52.5794719,63.2075206 52.5794719,63.2075206 C52.5794719,63.2075206 49.6788324,60.2241998 48.0846793,59.4306365 C47.2643292,58.972229 46.2892051,58.8749302 45.3937967,59.1621376 L39.208962,62.7421225 L39.304851,62.6884228 L33.1200163,66.2684077 C32.421151,66.8947075 32.0188259,67.784582 32.0113008,68.7206973 C31.8734604,70.4748899 33.0421065,74.4844731 33.0421065,74.4844731 C33.0421065,74.4844731 33.5455233,75.9403336 35.9966836,76 C37.3211491,76 39.6824135,74.9260045 41.5882056,73.8997422 L46.8501095,70.8030552 Z" id="Shape" stroke="#231F20" fill="#FFFFFF" fill-rule="nonzero"></path>
                <path d="M6,34 L6.10931174,34.1841584 C6.10931174,34.1841584 9.70445344,44.5564356 15,49" id="Shape" stroke="#231F20"></path>
                <path d="M33,66 C33,66 31.4599383,63.3468946 31.1810295,62.9803472 C30.998605,62.7572499 30.7115799,62.6370242 30.4170619,62.6603454 C30.4170619,62.6603454 13.2459804,63.9461706 5.94584547,50.9424632 C5.94584547,50.9424632 -1.08144388,41.1504098 0.143329586,32.9990926 C0.143329586,32.9990926 2.07750155,27.943065 5.933719,33.9125521" id="Shape" stroke="#231F20"></path>
                <polyline id="Shape" stroke="#231F20" points="48.885548 53 47 32.4818107 65 24"></polyline>
                <polyline id="Shape" stroke="#231F20" points="27.1331626 0 29 20.4477212 11 28.9940194 11 29"></polyline>
                <path d="M33,29.0831964 L33.6387509,28.4971 C34.6471408,29.5619556 36.1063243,30.1769518 37.6437189,30.1850577 C39.7260468,30.1850577 41.0354862,29.1652499 41.0354862,27.676565 C41.0354862,26.18788 39.8921221,25.6017836 38.5571327,25.044992 L36.4875798,24.1951522 C35.2995032,23.7145531 33.7217885,22.9350448 33.7217885,21.0829801 C33.7217885,19.2309154 35.4208659,18.0001129 37.6884315,18.0001129 C39.1374073,17.9909974 40.5254409,18.5344056 41.5209368,19.5005197 L40.9652236,20.0866162 C40.1321558,19.2543046 38.9518379,18.787412 37.7203691,18.803065 C35.9190916,18.803065 34.7118524,19.6822096 34.7118524,21.0360924 C34.7118524,22.4954725 36.0723918,23.0464032 37.0688432,23.4508097 L39.1320085,24.2947886 C40.6586231,24.9219117 42,25.695559 42,27.6062334 C42,29.5169078 40.2498226,30.9997318 37.6053939,30.9997318 C35.8372587,31.0157427 34.1517084,30.3143008 33,29.0831964 Z" id="Shape" fill="#231F20" fill-rule="nonzero"></path>
                <rect id="Rectangle-path" fill="#231F20" fill-rule="nonzero" x="37" y="14" width="1" height="20"></rect>
            </g>
        </g>
    </g>
</svg>