<?xml version="1.0" encoding="UTF-8"?>
<svg width="57px" height="70px" viewBox="0 0 57 70" version="1.1" xmlns="http://www.w3.org/2000/svg" xmlns:xlink="http://www.w3.org/1999/xlink">
    <!-- Generator: Sketch 49.1 (51147) - http://www.bohemiancoding.com/sketch -->
    <title>DFAT-04-WebsiteProofPointIcons-3-v01r01</title>
    <desc>Created with Sketch.</desc>
    <defs></defs>
    <g id="Symbols" stroke="none" stroke-width="1" fill="none" fill-rule="evenodd">
        <g id="976/ProofPoints" transform="translate(-560.000000, -8.000000)">
            <g id="DFAT-04-WebsiteProofPointIcons-3-v01r01" transform="translate(561.000000, 9.000000)">
                <path d="M24.7994382,42.7113514 C26.5948708,42.7492974 28.3886862,42.5807241 30.1449438,42.209009 L35.9724719,40.7081081 C36.5556572,40.5633821 37.1311074,40.3895878 37.6966292,40.1873874 L38.9882022,39.6544144 C39.1800959,39.5661474 39.3539653,39.4436264 39.5011236,39.292973 C40.0758427,38.612973 41.1264045,36.5974775 38.8151685,35.2374775 C38.2245764,34.8489212 37.5340103,34.6363215 36.8252809,34.6248649 C36.8252809,34.6248649 35.9724719,34.6248649 35.6634831,34.6983784 L21.1657303,36.8976577 C14.5780899,37.8900901 11.3213483,45.0086486 11.3213483,45.0086486 L8.3488764,50.1117117" id="Shape" stroke="#231F20" fill="#FFFFFF" fill-rule="nonzero"></path>
                <path d="M6.63707865,62.3578378 C4.55449438,61.1326126 1.65,59.2947748 0.896067416,57.9531532 C-0.33988764,55.7538739 0.729213483,54.5592793 0.729213483,54.5592793 C0.729213483,54.5592793 3.70786517,51.4594595 5.36404494,50.6875676 C6.21093386,50.2129514 7.22001852,50.1129189 8.14494382,50.4118919 L14.5224719,54.0875676 L14.4174157,54.0263063 L20.7949438,57.701982 C21.5166158,58.344842 21.9335215,59.2580714 21.944382,60.2198198 C22.0803371,62.0576577 20.8752809,66.1376577 20.8752809,66.1376577 C20.8752809,66.1376577 20.3623596,67.6385586 17.8286517,67.6936937 C16.4691011,67.6936937 14.0280899,66.590991 12.0691011,65.5434234 L6.63707865,62.3578378 Z" id="Shape" stroke="#231F20" fill="#FFFFFF" fill-rule="nonzero"></path>
                <path d="M48.647191,23.8245045 L48.5359551,24.0082883 C48.5359551,24.0082883 44.8775281,34.7106306 39.488764,39.3236036" id="Shape" stroke="#231F20"></path>
                <path d="M21.0668539,57.5855856 C21.0668539,57.5855856 22.6365169,54.7920721 22.9207865,54.4 C23.1039433,54.165618 23.3955611,54.0407328 23.6932584,54.0691892 C23.6932584,54.0691892 41.194382,55.4414414 48.6348315,41.7495495 C48.6348315,41.7495495 55.797191,31.4392793 54.5550562,22.8565766 C54.5550562,22.8565766 52.5775281,17.5390991 48.647191,23.8245045" id="Shape" stroke="#231F20"></path>
                <polyline id="Shape" stroke="#231F20" points="19.2747191 23.6284685 6.01910112 14.2861261 10.561236 11.0882883"></polyline>
                <polygon id="Shape" fill="#231F20" fill-rule="nonzero" points="19.1016854 20.8900901 18.588764 21.0003604 19.1140449 23.5120721 16.5432584 23.849009 16.611236 24.3636036 19.7382022 23.9531532"></polygon>
                <polyline id="Shape" stroke="#231F20" points="39.4949438 18.507027 38.3455056 19.3218018 25.7573034 28.1924324 21.3140449 25.061982"></polyline>
                <polygon id="Shape" fill="#231F20" fill-rule="nonzero" points="36.8314607 17.7718919 36.7634831 18.2926126 39.3342697 18.6234234 38.8089888 21.1412613 39.3219101 21.2454054 39.958427 18.1823423"></polygon>
                <polyline id="Shape" stroke="#231F20" points="32.4685393 5.10306306 45.4893258 14.2861261 41.7382022 16.9264865"></polyline>
                <polygon id="Shape" fill="#231F20" fill-rule="nonzero" points="32.641573 7.84144144 33.1544944 7.7372973 32.6292135 5.21945946 35.2 4.88864865 35.1258427 4.36792793 31.9988764 4.77837838"></polygon>
                <polyline id="Shape" stroke="#231F20" points="12.8477528 9.47711712 25.7573034 0.373693694 30.2005618 3.51027027"></polyline>
                <polygon id="Shape" fill="#231F20" fill-rule="nonzero" points="15.511236 10.2122523 15.5792135 9.69765766 13.008427 9.36072072 13.5337079 6.84288288 13.0207865 6.73873874 12.3842697 9.8018018"></polygon>
            </g>
        </g>
    </g>
</svg>