<?xml version="1.0" encoding="UTF-8"?>
<svg width="72px" height="70px" viewBox="0 0 72 70" version="1.1" xmlns="http://www.w3.org/2000/svg" xmlns:xlink="http://www.w3.org/1999/xlink">
    <!-- Generator: Sketch 49.1 (51147) - http://www.bohemiancoding.com/sketch -->
    <title>DFAT-04-WebsiteProofPointIcons-2-v01r01</title>
    <desc>Created with Sketch.</desc>
    <defs></defs>
    <g id="Symbols" stroke="none" stroke-width="1" fill="none" fill-rule="evenodd">
        <g id="976/ProofPoints" transform="translate(-280.000000, -8.000000)" stroke="#231F20">
            <g id="DFAT-04-WebsiteProofPointIcons-2-v01r01" transform="translate(281.000000, 9.000000)">
                <path d="M17.7193537,45.4904673 C16.3381437,44.7589357 15.047773,43.8772079 13.8733113,42.8624142 L10.1033206,39.2724937 C10.1033206,39.2724937 9.59812014,38.8047002 9.01686797,38.1581991 L8.26721564,37.2121 C8.1595098,37.0648031 8.08205432,36.8988562 8.03906058,36.7232822 C7.903254,35.9769151 8.00103473,34.0321558 10.358637,34.0058753 C10.9790244,33.9685904 11.5969782,34.1093838 12.1349871,34.4105954 C12.1349871,34.4105954 12.7759942,34.783779 12.9878524,34.936206 L23.0701331,42.7204993 C27.6386665,46.2526027 26.9650659,52.9278575 26.9650659,52.9278575 L26.9650659,58" id="Shape" fill="#FFFFFF" fill-rule="nonzero"></path>
                <path d="M22.2128248,67.9779614 C24.2823731,67.9779614 27.2381127,67.8347107 28.3949372,67.107438 C30.2522242,65.9338843 29.9868974,64.5344353 29.9868974,64.5344353 C29.9868974,64.5344353 29.1007062,60.7933884 28.214515,59.4545455 C27.7902932,58.7101895 27.0864724,58.1830843 26.2723235,58 L13.72237,58 C12.9101847,58.1844823 12.2085072,58.711422 11.785485,59.4545455 C10.8992938,60.7933884 10.0131026,64.5344353 10.0131026,64.5344353 C10.0131026,64.5344353 9.74777584,65.9338843 11.6050628,67.107438 C12.6079978,67.7355372 14.9110337,67.9449036 16.821386,68 L22.2128248,67.9779614 Z" id="Shape" fill="#FFFFFF" fill-rule="nonzero"></path>
                <path d="M7.88550408,21 L7.88550408,21.1844262 C7.88550408,21.1844262 5.81885282,30.4467213 8,36" id="Shape"></path>
                <path d="M13.9807404,58 C13.9807404,58 14.0240745,55.2445981 13.9807404,54.8328713 C13.9419584,54.5789906 13.7751674,54.3609559 13.5365651,54.2522311 C13.5365651,54.2522311 -0.341203365,47.7860101 0.0650544938,34.3943344 C0.0650544938,34.3943344 -0.817879254,23.636654 3.92179577,17.7669089 C3.92179577,17.7669089 7.77853705,14.6420086 7.97895759,21.0079372" id="Shape"></path>
                <circle id="Oval" cx="36.5" cy="17.5" r="17.5"></circle>
                <path d="M42,21 C40.8019854,21.4831333 39.5668642,21.9662666 38.2893354,22.4331145 C25.1800874,27.318732 13.904968,29.3761198 13.0462142,27.0310234 C12.6274392,25.8584752 15.0870797,23.6708043 19.1105003,21.303994" id="Shape"></path>
                <path d="M52.3572945,8.67909204 C57.2417323,7.73094375 60.5203275,7.74130603 60.9526697,8.92778668 C61.5136852,10.4821281 57.0410019,13.6478036 50,17" id="Shape"></path>
                <path d="M47,15 L47,22" id="Shape"></path>
                <path d="M43,19 L51,19" id="Shape"></path>
                <path d="M53.2779734,45.4904673 C54.6608911,44.7595888 55.9527725,43.8778258 57.1283654,42.8624142 L60.8972964,39.2724937 C60.8972964,39.2724937 61.4023549,38.8047002 61.9834436,38.1581991 L62.7328853,37.2121 C62.8381704,37.0634898 62.915396,36.8979889 62.9609762,36.7232822 C63.0967446,35.9769151 62.9989913,34.0321558 60.6366211,34.0058753 C60.0164081,33.9685904 59.398628,34.1093838 58.8607703,34.4105954 C58.5690578,34.571321 58.2862699,34.7467663 58.0135754,34.936206 L47.9341289,42.7204993 C43.361449,46.2526027 44.0348603,52.9278575 44.0348603,52.9278575 L44.0348603,58" id="Shape" fill="#FFFFFF" fill-rule="nonzero"></path>
                <path d="M47.7871752,67.9779614 C45.7176269,67.9779614 42.7618873,67.8347107 41.6050628,67.107438 C39.7477758,65.9338843 40.0131026,64.5344353 40.0131026,64.5344353 C40.0131026,64.5344353 40.8992938,60.7933884 41.7801785,59.4545455 C42.2070525,58.7103366 42.9123648,58.1835536 43.7276765,58 L56.2723235,58 C57.0876352,58.1835536 57.7929475,58.7103366 58.2198215,59.4545455 C59.1060128,60.7933884 59.9868974,64.5344353 59.9868974,64.5344353 C59.9868974,64.5344353 60.2522242,65.9338843 58.3949372,67.107438 C57.3973087,67.7355372 55.0942729,67.9449036 53.178614,68 L47.7871752,67.9779614 Z" id="Shape" fill="#FFFFFF" fill-rule="nonzero"></path>
                <path d="M62.1144959,21 L62.1144959,21.1844262 C62.1144959,21.1844262 64.1811472,30.4467213 62,36" id="Shape"></path>
                <path d="M56.019261,58 C56.019261,58 55.9759238,55.2445981 56.019261,54.8328713 C56.0540985,54.5789823 56.2195776,54.3600073 56.4580501,54.2522311 C56.4580501,54.2522311 70.342204,47.7860101 69.9359178,34.3943344 C69.9359178,34.3943344 70.813496,23.636654 66.0734903,17.7669089 C66.0734903,17.7669089 62.221897,14.6420086 62.0214625,21.0079372" id="Shape"></path>
            </g>
        </g>
    </g>
</svg>